<svg width="43" height="43" viewBox="0 0 43 43" fill="none" xmlns="http://www.w3.org/2000/svg">
<path d="M11.5429 41.8729C9.06201 41.76 7.71434 41.3472 6.81796 40.9976C5.63023 40.5351 4.78344 39.9846 3.89202 39.0945C3.0006 38.2043 2.44889 37.3575 1.98892 36.1698C1.6393 35.2734 1.22644 33.9257 1.11362 31.4449C0.98964 28.7632 0.964844 27.9585 0.964844 21.1644C0.964844 14.3703 0.992119 13.5669 1.11238 10.8827C1.2252 8.40185 1.64054 7.05666 1.98768 6.15781C2.45013 4.97007 3.00184 4.12329 3.89078 3.23063C4.78096 2.34045 5.62775 1.78749 6.81672 1.32753C7.7131 0.977902 9.06077 0.565047 11.5416 0.452224C14.2246 0.329484 15.0304 0.304688 21.8221 0.304688C28.6162 0.304688 29.4196 0.331963 32.1038 0.452224C34.5846 0.565047 35.9298 0.980381 36.8287 1.32753C38.0164 1.78749 38.8632 2.34045 39.7546 3.23063C40.646 4.12081 41.1953 4.96883 41.6577 6.15657C42.0073 7.05295 42.4202 8.40061 42.533 10.8815C42.6558 13.5656 42.6806 14.369 42.6806 21.1632C42.6806 27.9548 42.6558 28.7607 42.533 31.4449C42.4202 33.9257 42.0049 35.2734 41.6577 36.1698C41.1953 37.3575 40.6448 38.2043 39.7546 39.0945C38.8644 39.9846 38.0164 40.5351 36.8287 40.9976C35.9323 41.3472 34.5846 41.76 32.1038 41.8729C29.4221 41.9956 28.6162 42.0204 21.8221 42.0204C15.0304 42.0204 14.2246 41.9968 11.5429 41.8729Z" fill="url(#paint0_radial_1035_6356)"/>
<path d="M17.0865 21.0153C17.0865 18.4827 19.139 16.4291 21.6716 16.4291C24.2041 16.4291 26.2578 18.4827 26.2578 21.0153C26.2578 23.5479 24.2041 25.6015 21.6716 25.6015C19.139 25.6015 17.0865 23.5479 17.0865 21.0153ZM14.6072 21.0153C14.6072 24.9169 17.7699 28.0796 21.6716 28.0796C25.5732 28.0796 28.7359 24.9169 28.7359 21.0153C28.7359 17.1137 25.5732 13.951 21.6716 13.951C17.7699 13.951 14.6074 17.1135 14.6074 21.0153M27.3647 13.6709C27.3646 13.9974 27.4613 14.3166 27.6426 14.5882C27.8239 14.8598 28.0816 15.0715 28.3833 15.1965C28.6849 15.3216 29.0168 15.3544 29.3371 15.2909C29.6573 15.2273 29.9516 15.0702 30.1825 14.8394C30.4135 14.6086 30.5709 14.3145 30.6347 13.9943C30.6985 13.6741 30.666 13.3421 30.5411 13.0404C30.4163 12.7387 30.2048 12.4808 29.9334 12.2993C29.662 12.1177 29.3428 12.0208 29.0163 12.0207H29.0156C28.578 12.0209 28.1583 12.1948 27.8487 12.5042C27.5392 12.8136 27.3651 13.2332 27.3647 13.6709ZM16.1135 32.2137C14.7722 32.1526 14.0432 31.9292 13.5587 31.7404C12.9164 31.4904 12.4581 31.1925 11.9763 30.7114C11.4944 30.2302 11.1962 29.7723 10.9472 29.13C10.7583 28.6458 10.5349 27.9165 10.4739 26.5752C10.4073 25.1251 10.3939 24.6894 10.3939 21.0155C10.3939 17.3416 10.4084 16.9072 10.4739 15.4558C10.535 14.1145 10.7601 13.3867 10.9472 12.901C11.1973 12.2587 11.4951 11.8004 11.9763 11.3186C12.4574 10.8367 12.9153 10.5385 13.5587 10.2895C14.043 10.1007 14.7722 9.87724 16.1135 9.81627C17.5637 9.74957 17.9993 9.73625 21.6716 9.73625C25.3438 9.73625 25.7799 9.75045 27.2312 9.81649C28.5725 9.87757 29.3004 10.1026 29.7861 10.2897C30.4284 10.5387 30.8867 10.8376 31.3685 11.3188C31.8503 11.8 32.1475 12.2589 32.3976 12.9012C32.5864 13.3855 32.8098 14.1148 32.8708 15.4561C32.9375 16.9074 32.9508 17.3418 32.9508 21.0157C32.9508 24.6897 32.9375 25.1241 32.8708 26.5754C32.8097 27.9167 32.5852 28.6458 32.3976 29.1302C32.1475 29.7726 31.8497 30.2308 31.3685 30.7116C30.8873 31.1923 30.4284 31.4906 29.7861 31.7406C29.3018 31.9295 28.5725 32.1529 27.2312 32.2139C25.7811 32.2806 25.3455 32.2939 21.6716 32.2939C17.9976 32.2939 17.5632 32.2806 16.1135 32.2139M15.9996 7.34113C14.535 7.40782 13.5343 7.64005 12.6603 7.98014C11.7557 8.33134 10.9889 8.8025 10.2232 9.56698C9.45754 10.3315 8.98759 11.0984 8.63639 12.004C8.2963 12.8786 8.06407 13.8788 7.99738 15.3434C7.92958 16.8102 7.91406 17.2792 7.91406 21.0153C7.91406 24.7514 7.92958 25.2204 7.99738 26.6872C8.06407 28.1519 8.2963 29.152 8.63639 30.0266C8.98759 30.9312 9.45765 31.6995 10.2232 32.4636C10.9888 33.2278 11.7546 33.6983 12.6603 34.0505C13.5359 34.3906 14.535 34.6228 15.9996 34.6895C17.4673 34.7562 17.9355 34.7728 21.6716 34.7728C25.4077 34.7728 25.8766 34.7573 27.3435 34.6895C28.8082 34.6228 29.8083 34.3906 30.6828 34.0505C31.5874 33.6983 32.3542 33.2281 33.1199 32.4636C33.8856 31.6992 34.3545 30.9312 34.7067 30.0266C35.0468 29.152 35.2801 28.1518 35.3457 26.6872C35.4124 25.2193 35.4279 24.7514 35.4279 21.0153C35.4279 17.2792 35.4124 16.8102 35.3457 15.3434C35.279 13.8787 35.0468 12.878 34.7067 12.004C34.3545 11.0995 33.8844 10.3327 33.1199 9.56698C32.3554 8.80129 31.5874 8.33134 30.6839 7.98014C29.8083 7.64005 28.8081 7.40672 27.3446 7.34113C25.8775 7.2741 25.4088 7.25781 21.6732 7.25781C17.9377 7.25781 17.4678 7.27333 16.0002 7.34113" fill="white"/>
<defs>
<radialGradient id="paint0_radial_1035_6356" cx="0" cy="0" r="1" gradientUnits="userSpaceOnUse" gradientTransform="translate(3.66464 41.1065) scale(52.9635)">
<stop offset="0.09" stop-color="#FA8F21"/>
<stop offset="0.78" stop-color="#D82D7E"/>
</radialGradient>
</defs>
</svg>
