<svg width="43" height="43" viewBox="0 0 43 43" fill="none" xmlns="http://www.w3.org/2000/svg">
<rect x="0.996094" y="0.304688" width="41.7157" height="41.7157" rx="20.8579" fill="#0A66C2"/>
<g clip-path="url(#clip0_1035_6355)">
<path d="M9.6875 12.2402C9.6875 11.4573 9.96154 10.8113 10.5096 10.3024C11.0577 9.79351 11.7702 9.53906 12.6471 9.53906C13.5083 9.53906 14.2051 9.78959 14.7375 10.2907C15.2856 10.8074 15.5596 11.4808 15.5596 12.3107C15.5596 13.0623 15.2934 13.6887 14.761 14.1898C14.213 14.7065 13.4926 14.9649 12.6001 14.9649H12.5766C11.7153 14.9649 11.0185 14.7065 10.4861 14.1898C9.9537 13.6731 9.6875 13.0232 9.6875 12.2402ZM9.99285 32.7928V17.1024H15.2073V32.7928H9.99285ZM18.0964 32.7928H23.3109V24.0315C23.3109 23.4834 23.3735 23.0606 23.4988 22.7631C23.718 22.2307 24.0508 21.7805 24.497 21.4125C24.9433 21.0445 25.5031 20.8606 26.1765 20.8606C27.9303 20.8606 28.8072 22.0428 28.8072 24.4073V32.7928H34.0217V23.7966C34.0217 21.4791 33.4736 19.7214 32.3775 18.5234C31.2813 17.3255 29.8329 16.7266 28.0321 16.7266C26.0121 16.7266 24.4383 17.5956 23.3109 19.3338V19.3808H23.2874L23.3109 19.3338V17.1024H18.0964C18.1277 17.6035 18.1434 19.1615 18.1434 21.7766C18.1434 24.3917 18.1277 28.0637 18.0964 32.7928Z" fill="white"/>
</g>
<defs>
<clipPath id="clip0_1035_6355">
<rect x="9.6875" y="8.99414" width="24.3342" height="24.3342" fill="white"/>
</clipPath>
</defs>
</svg>
