<svg width="32" height="32" viewBox="0 0 32 32" fill="none" xmlns="http://www.w3.org/2000/svg">
<rect width="32" height="32" rx="16" fill="#0A66C2"/>
<g clip-path="url(#clip0_417_1266)">
<path d="M6.66797 9.15606C6.66797 8.55544 6.87818 8.05995 7.2986 7.66957C7.71901 7.27917 8.26557 7.08398 8.93824 7.08398C9.59891 7.08398 10.1334 7.27616 10.5418 7.66056C10.9623 8.05696 11.1725 8.57346 11.1725 9.21011C11.1725 9.78669 10.9683 10.2672 10.5599 10.6516C10.1394 11.0479 9.58689 11.2461 8.9022 11.2461H8.88419C8.22352 11.2461 7.689 11.0479 7.28058 10.6516C6.87217 10.2552 6.66797 9.75665 6.66797 9.15606ZM6.9022 24.9218V12.8858H10.9022V24.9218H6.9022ZM13.1184 24.9218H17.1184V18.2011C17.1184 17.7807 17.1665 17.4563 17.2626 17.2281C17.4307 16.8197 17.686 16.4744 18.0283 16.1921C18.3707 15.9098 18.8001 15.7687 19.3166 15.7687C20.662 15.7687 21.3346 16.6756 21.3346 18.4894V24.9218H25.3346V18.0209C25.3346 16.2431 24.9142 14.8948 24.0734 13.9759C23.2325 13.057 22.1214 12.5975 20.74 12.5975C19.1905 12.5975 17.9833 13.2642 17.1184 14.5975V14.6335H17.1004L17.1184 14.5975V12.8858H13.1184C13.1424 13.2702 13.1545 14.4654 13.1545 16.4714C13.1545 18.4774 13.1424 21.2942 13.1184 24.9218Z" fill="white"/>
</g>
<defs>
<clipPath id="clip0_417_1266">
<rect x="6.66797" y="6.66602" width="18.6667" height="18.6667" fill="white"/>
</clipPath>
</defs>
</svg>
