<svg width="24" height="24" viewBox="0 0 24 24" fill="none" xmlns="http://www.w3.org/2000/svg">
<path d="M14.95 12.95L16.8 14.8C17.19 15.19 17.19 15.81 16.81 16.21C16.7 16.32 16.6 16.43 16.49 16.54C15.45 17.57 14.36 18.5 13.22 19.33C12.08 20.15 10.94 20.81 9.81 21.29C8.67 21.76 7.58 22 6.54 22C5.86 22 5.21 21.88 4.61 21.64C4 21.4 3.44 21.02 2.94 20.49C2.31 19.85 2 19.15 2 18.41C2 18.13 2.06 17.85 2.18 17.6C2.3 17.34 2.48 17.11 2.74 16.93L6.01 14.61C6.26 14.43 6.49 14.3 6.71 14.21C6.92 14.12 7.13 14.07 7.32 14.07C7.56 14.07 7.8 14.14 8.03 14.28C8.26 14.41 8.5 14.6 8.74 14.84L9.53 15.6C9.64 15.71 9.77 15.76 9.93 15.76C10.01 15.76 10.08 15.75 10.16 15.73C10.24 15.7 10.3 15.67 10.36 15.65C10.69 15.47 11.12 15.16 11.64 14.72C12.16 14.27 12.69 13.79 13.22 13.27C13.32 13.17 13.42 13.06 13.52 12.96C13.91 12.56 14.55 12.55 14.95 12.95Z" fill="#0E994A"/>
<path d="M18.3291 2.02844C18.6091 2.02844 18.8991 2.07844 19.1791 2.17844C19.2591 2.20844 19.3391 2.23844 19.4191 2.27844C19.7791 2.44844 20.1191 2.66844 20.4391 2.95844C20.9791 3.44844 21.3691 3.98844 21.6191 4.59844C21.6191 4.60844 21.6291 4.61844 21.6291 4.62844C21.8691 5.21844 21.9991 5.85844 21.9991 6.54844C21.9991 7.56844 21.7591 8.65844 21.2691 9.80844C20.7791 10.9584 20.1191 12.1084 19.2891 13.2484C18.9991 13.6384 18.7091 14.0284 18.3991 14.3984L15.1291 11.1284C15.3391 10.8484 15.4991 10.5984 15.6091 10.3884C15.6291 10.3384 15.6591 10.2784 15.6891 10.2084C15.7191 10.1284 15.7291 10.0484 15.7291 9.95844C15.7291 9.78844 15.6691 9.65844 15.5591 9.54844L14.8091 8.78844C14.5591 8.53844 14.3691 8.29844 14.2491 8.06844C14.1091 7.83844 14.0391 7.60844 14.0391 7.35844C14.0391 7.16844 14.0791 6.96844 14.1691 6.74844C14.2591 6.52844 14.3891 6.29844 14.5591 6.04844L16.9091 2.73844C17.0891 2.47844 17.2991 2.29844 17.5491 2.18844C17.7991 2.08844 18.0491 2.02844 18.3291 2.02844Z" fill="#0E994A"/>
</svg>
