<svg width="24" height="24" viewBox="0 0 24 24" fill="none" xmlns="http://www.w3.org/2000/svg">
<path d="M20.6615 8.45C19.6236 3.83 15.6401 1.75 12.1409 1.75C12.1409 1.75 12.1409 1.75 12.131 1.75C8.6417 1.75 4.64827 3.82 3.61038 8.44C2.45386 13.6 5.57744 17.97 8.40447 20.72C9.45225 21.74 10.7966 22.25 12.1409 22.25C13.4852 22.25 14.8295 21.74 15.8674 20.72C18.6945 17.97 21.818 13.61 20.6615 8.45ZM12.1409 13.46C10.421 13.46 9.02721 12.05 9.02721 10.31C9.02721 8.57 10.421 7.16 12.1409 7.16C13.8608 7.16 15.2546 8.57 15.2546 10.31C15.2546 12.05 13.8608 13.46 12.1409 13.46Z" fill="#0E994A"/>
</svg>
