<svg width="32" height="32" viewBox="0 0 32 32" fill="none" xmlns="http://www.w3.org/2000/svg">
<path d="M29.3351 7.61138V20.3847C29.3351 24.0647 26.3484 27.0514 22.6684 27.0514H9.33505C8.72172 27.0514 8.13505 26.9714 7.56172 26.8114C6.73505 26.5847 6.46839 25.5314 7.08172 24.918L21.2551 10.7447C21.5484 10.4514 21.9884 10.3847 22.4017 10.4647C22.8284 10.5447 23.2951 10.4247 23.6284 10.1047L27.0551 6.66471C28.3084 5.41138 29.3351 5.82471 29.3351 7.61138Z" fill="#FFBA21"/>
<path d="M19.5213 9.81141L5.5613 23.7714C4.9213 24.4114 3.85464 24.2514 3.42797 23.4514C2.93464 22.5447 2.66797 21.4914 2.66797 20.3847V7.61141C2.66797 5.82474 3.69464 5.41141 4.94797 6.66474L8.38797 10.1181C8.90797 10.6247 9.7613 10.6247 10.2813 10.1181L15.0546 5.33141C15.5746 4.81141 16.428 4.81141 16.948 5.33141L19.5346 7.91807C20.0413 8.43807 20.0413 9.29141 19.5213 9.81141Z" fill="#FFBA21"/>
</svg>
