<svg width="58" height="58" viewBox="0 0 58 58" fill="none" xmlns="http://www.w3.org/2000/svg">
<g opacity="0.9">
<path d="M19.3353 54.1667H38.6686C48.3836 54.1667 50.1236 50.2758 50.6311 45.5392L52.4436 26.2058C53.0961 20.3092 51.4044 15.5 41.0853 15.5H16.9186C6.59944 15.5 4.90777 20.3092 5.56027 26.2058L7.37277 45.5392C7.88027 50.2758 9.62028 54.1667 19.3353 54.1667Z" stroke="#ED8844" stroke-width="3.625" stroke-miterlimit="10" stroke-linecap="round" stroke-linejoin="round"/>
<path d="M19.332 15.4987V13.5654C19.332 9.28786 19.332 5.83203 27.0654 5.83203H30.932C38.6654 5.83203 38.6654 9.28786 38.6654 13.5654V15.4987" stroke="#ED8844" stroke-width="3.625" stroke-miterlimit="10" stroke-linecap="round" stroke-linejoin="round"/>
<path d="M33.8346 32.4167V34.8333C33.8346 34.8575 33.8346 34.8575 33.8346 34.8817C33.8346 37.5158 33.8105 39.6667 29.0013 39.6667C24.2163 39.6667 24.168 37.54 24.168 34.9058V32.4167C24.168 30 24.168 30 26.5846 30H31.418C33.8346 30 33.8346 30 33.8346 32.4167Z" stroke="#ED8844" stroke-width="3.625" stroke-miterlimit="10" stroke-linecap="round" stroke-linejoin="round"/>
<path d="M52.3195 27.582C46.737 31.642 40.357 34.0587 33.832 34.8804" stroke="#ED8844" stroke-width="3.625" stroke-miterlimit="10" stroke-linecap="round" stroke-linejoin="round"/>
<path d="M6.33594 28.2344C11.7734 31.956 17.9118 34.2035 24.1709 34.9044" stroke="#ED8844" stroke-width="3.625" stroke-miterlimit="10" stroke-linecap="round" stroke-linejoin="round"/>
</g>
</svg>
