<svg width="58" height="58" viewBox="0 0 58 58" fill="none" xmlns="http://www.w3.org/2000/svg">
<path d="M53.1654 28.7329V30.8837C53.1654 39.487 51.0145 41.6137 42.4354 41.6137H15.562C6.98286 41.6137 4.83203 39.4629 4.83203 30.8837V15.562C4.83203 6.98286 6.98286 4.83203 15.562 4.83203H19.332" stroke="#4AAADB" stroke-width="3.625" stroke-linecap="round" stroke-linejoin="round"/>
<path d="M29 41.6133V53.1649" stroke="#4AAADB" stroke-width="3.625" stroke-linecap="round" stroke-linejoin="round"/>
<path d="M4.83203 31.418H53.1654" stroke="#4AAADB" stroke-width="3.625" stroke-linecap="round" stroke-linejoin="round"/>
<path d="M18.125 53.168H39.875" stroke="#4AAADB" stroke-width="3.625" stroke-linecap="round" stroke-linejoin="round"/>
<path d="M43.1648 22.6499H31.6615C28.3265 22.6499 27.2148 20.4266 27.2148 18.2033V9.69661C27.2148 7.03828 29.3898 4.86328 32.0482 4.86328H43.1648C45.6298 4.86328 47.6115 6.84495 47.6115 9.30995V18.2033C47.6115 20.6683 45.6298 22.6499 43.1648 22.6499Z" stroke="#4AAADB" stroke-width="3.625" stroke-linecap="round" stroke-linejoin="round"/>
<path d="M50.5296 19.1367L47.6055 17.0826V10.4126L50.5296 8.35839C51.9796 7.36756 53.1638 7.97173 53.1638 9.73589V17.7834C53.1638 19.5476 51.9796 20.1517 50.5296 19.1367Z" stroke="#4AAADB" stroke-width="3.625" stroke-linecap="round" stroke-linejoin="round"/>
</svg>
