<svg width="40" height="40" viewBox="0 0 40 40" fill="none" xmlns="http://www.w3.org/2000/svg">
<path d="M29.9969 11.9359C29.8969 11.9193 29.7802 11.9193 29.6802 11.9359C27.3802 11.8526 25.5469 9.96927 25.5469 7.63594C25.5469 5.25261 27.4635 3.33594 29.8469 3.33594C32.2302 3.33594 34.1469 5.26927 34.1469 7.63594C34.1302 9.96927 32.2969 11.8526 29.9969 11.9359Z" stroke="#3A579A" stroke-width="2.5" stroke-linecap="round" stroke-linejoin="round"/>
<path d="M28.2805 24.0695C30.5638 24.4529 33.0805 24.0529 34.8471 22.8695C37.1971 21.3029 37.1971 18.7362 34.8471 17.1695C33.0638 15.9862 30.5138 15.5862 28.2305 15.9862" stroke="#3A579A" stroke-width="2.5" stroke-linecap="round" stroke-linejoin="round"/>
<path d="M9.95078 11.9359C10.0508 11.9193 10.1674 11.9193 10.2674 11.9359C12.5674 11.8526 14.4008 9.96927 14.4008 7.63594C14.4008 5.25261 12.4841 3.33594 10.1008 3.33594C7.71745 3.33594 5.80078 5.26927 5.80078 7.63594C5.81745 9.96927 7.65078 11.8526 9.95078 11.9359Z" stroke="#3A579A" stroke-width="2.5" stroke-linecap="round" stroke-linejoin="round"/>
<path d="M11.669 24.0695C9.38567 24.4529 6.86901 24.0529 5.10234 22.8695C2.75234 21.3029 2.75234 18.7362 5.10234 17.1695C6.88568 15.9862 9.43567 15.5862 11.719 15.9862" stroke="#3A579A" stroke-width="2.5" stroke-linecap="round" stroke-linejoin="round"/>
<path d="M19.993 24.3813C19.893 24.3646 19.7763 24.3646 19.6763 24.3813C17.3763 24.2979 15.543 22.4146 15.543 20.0813C15.543 17.6979 17.4596 15.7812 19.843 15.7812C22.2263 15.7812 24.143 17.7146 24.143 20.0813C24.1263 22.4146 22.293 24.3146 19.993 24.3813Z" stroke="#3A579A" stroke-width="2.5" stroke-linecap="round" stroke-linejoin="round"/>
<path d="M15.1453 29.6297C12.7953 31.1964 12.7953 33.763 15.1453 35.3297C17.812 37.113 22.1786 37.113 24.8453 35.3297C27.1953 33.763 27.1953 31.1964 24.8453 29.6297C22.1953 27.863 17.812 27.863 15.1453 29.6297Z" stroke="#3A579A" stroke-width="2.5" stroke-linecap="round" stroke-linejoin="round"/>
</svg>
