<svg width="40" height="40" viewBox="0 0 40 40" fill="none" xmlns="http://www.w3.org/2000/svg">
<path d="M30 31.432H28.7333C27.4 31.432 26.1333 31.9487 25.2 32.882L22.35 35.6987C21.05 36.982 18.9334 36.982 17.6334 35.6987L14.7833 32.882C13.85 31.9487 12.5667 31.432 11.25 31.432H10C7.23333 31.432 5 29.2154 5 26.482V8.28203C5 5.5487 7.23333 3.33203 10 3.33203H30C32.7667 3.33203 35 5.5487 35 8.28203V26.4654C35 29.1987 32.7667 31.432 30 31.432Z" stroke="#349FD7" stroke-width="2.5" stroke-miterlimit="10" stroke-linecap="round" stroke-linejoin="round"/>
<path d="M20.1178 14.918C20.0511 14.918 19.951 14.918 19.8677 14.918C18.1177 14.8513 16.7344 13.4346 16.7344 11.668C16.7344 9.86797 18.1844 8.41797 19.9844 8.41797C21.7844 8.41797 23.2344 9.88464 23.2344 11.668C23.2511 13.4346 21.8678 14.868 20.1178 14.918Z" stroke="#349FD7" stroke-width="2.5" stroke-linecap="round" stroke-linejoin="round"/>
<path d="M15.4164 19.9336C13.1997 21.4169 13.1997 23.8336 15.4164 25.3169C17.9331 27.0003 22.0664 27.0003 24.5831 25.3169C26.7997 23.8336 26.7997 21.4169 24.5831 19.9336C22.0664 18.2669 17.9497 18.2669 15.4164 19.9336Z" stroke="#349FD7" stroke-width="2.5" stroke-linecap="round" stroke-linejoin="round"/>
</svg>
