<svg width="40" height="40" viewBox="0 0 40 40" fill="none" xmlns="http://www.w3.org/2000/svg">
<path d="M16.7505 4.21746L6.71719 10.7675C3.50052 12.8675 3.50052 17.5675 6.71719 19.6675L16.7505 26.2175C18.5505 27.4008 21.5172 27.4008 23.3172 26.2175L33.3005 19.6675C36.5005 17.5675 36.5005 12.8841 33.3005 10.7841L23.3172 4.23413C21.5172 3.03413 18.5505 3.03413 16.7505 4.21746Z" stroke="#E64B57" stroke-width="2.5" stroke-linecap="round" stroke-linejoin="round"/>
<path d="M9.38385 21.8008L9.36719 29.6174C9.36719 31.7341 11.0005 34.0008 13.0005 34.6674L18.3172 36.4341C19.2339 36.7341 20.7505 36.7341 21.6839 36.4341L27.0005 34.6674C29.0005 34.0008 30.6339 31.7341 30.6339 29.6174V21.8841" stroke="#E64B57" stroke-width="2.5" stroke-linecap="round" stroke-linejoin="round"/>
<path d="M35.6641 25V15" stroke="#E64B57" stroke-width="2.5" stroke-linecap="round" stroke-linejoin="round"/>
</svg>
