<svg width="56" height="45" viewBox="0 0 56 45" fill="none" xmlns="http://www.w3.org/2000/svg">
<path d="M18.2001 30.8C17.991 30.8 17.7819 30.8306 17.5824 30.8954C16.4484 31.2638 15.2558 31.5 14.0001 31.5C12.7445 31.5 11.5519 31.2638 10.417 30.8954C10.2175 30.8306 10.0093 30.8 9.80014 30.8C4.36989 30.8 -0.0287336 35.217 0.000141354 40.6543C0.0123914 42.952 1.90152 44.8 4.20014 44.8H23.8001C26.0988 44.8 27.9879 42.952 28.0001 40.6543C28.029 35.217 23.6304 30.8 18.2001 30.8ZM14.0001 28C18.6394 28 22.4001 24.2393 22.4001 19.6C22.4001 14.9608 18.6394 11.2 14.0001 11.2C9.36089 11.2 5.60014 14.9608 5.60014 19.6C5.60014 24.2393 9.36089 28 14.0001 28ZM51.8001 0H18.2001C15.884 0 14.0001 1.94688 14.0001 4.33913V8.4C16.0494 8.4 17.9464 8.99325 19.6001 9.9575V5.6H50.4001V30.8H44.8001V25.2H33.6001V30.8H26.9291C28.6004 32.2604 29.8271 34.1889 30.402 36.4H51.8001C54.1163 36.4 56.0001 34.4531 56.0001 32.0609V4.33913C56.0001 1.94688 54.1163 0 51.8001 0Z" fill="#667DB0"/>
</svg>
