<svg width="58" height="58" viewBox="0 0 58 58" fill="none" xmlns="http://www.w3.org/2000/svg">
<g opacity="0.9">
<path d="M28.9948 31.4193C30.3295 31.4193 31.4115 30.3373 31.4115 29.0026C31.4115 27.6679 30.3295 26.5859 28.9948 26.5859C27.6601 26.5859 26.5781 27.6679 26.5781 29.0026C26.5781 30.3373 27.6601 31.4193 28.9948 31.4193Z" stroke="#E33442" stroke-width="4" stroke-linecap="round" stroke-linejoin="round"/>
<path d="M29.0052 16.9141C26.6154 16.9141 24.2792 17.6227 22.2921 18.9505C20.305 20.2782 18.7562 22.1654 17.8417 24.3733C16.9271 26.5812 16.6878 29.0108 17.1541 31.3547C17.6203 33.6987 18.7711 35.8517 20.461 37.5416C22.1509 39.2315 24.3039 40.3823 26.6479 40.8486C28.9918 41.3148 31.4214 41.0755 33.6293 40.1609C35.8372 39.2464 37.7244 37.6976 39.0521 35.7105C40.3799 33.7234 41.0885 31.3873 41.0885 28.9974" stroke="#E33442" stroke-width="4" stroke-linecap="round" stroke-linejoin="round"/>
<path d="M31.4249 7.38171C26.9446 6.87907 22.4187 7.78114 18.4735 9.96312C14.5282 12.1451 11.3586 15.4992 9.40287 19.5614C7.4472 23.6236 6.80219 28.1931 7.55707 32.6379C8.31196 37.0827 10.4294 41.1831 13.6166 44.3718C16.8037 47.5606 20.903 49.6801 25.3474 50.4372C29.7919 51.1943 34.3617 50.5516 38.4249 48.598C42.4881 46.6444 45.8437 43.4764 48.0277 39.5322C50.2117 35.5881 51.116 31.0627 50.6156 26.5821" stroke="#E33442" stroke-width="4" stroke-linecap="round" stroke-linejoin="round"/>
<path d="M36.25 14.5V21.75H43.5L50.75 14.5H43.5V7.25L36.25 14.5Z" stroke="#E33442" stroke-width="4" stroke-linecap="round" stroke-linejoin="round"/>
<path d="M36.25 21.75L29 29" stroke="#E33442" stroke-width="4" stroke-linecap="round" stroke-linejoin="round"/>
</g>
</svg>
